<svg class="injected-svg" id="svg-11deb439" height="100%" width="100%" viewBox="0 0 540 508" xmlns="http://www.w3.org/2000/svg">
<g xmlns="http://www.w3.org/2000/svg" fill="#cf4d4f" id="icon-svg">
	<path transform="translate(31.999999999999986, 183.5) scale(0.7,0.7)" d="M 7.400 31.400 L 4 34.800 4 88.977 L 4 143.154 6.923 146.077 L 9.846 149 36.923 149 C 67.001 149, 66.154 148.779, 61.984 155.526 C 59.857 158.967, 55.367 161.599, 49.830 162.650 C 45.536 163.464, 44 164.722, 44 167.422 C 44 171.875, 44.853 172, 75.200 172 L 104 172 104 165.314 C 104 160.096, 103.577 158.176, 102.074 156.564 C 101.015 155.429, 99.841 153.262, 99.466 151.750 C 98.795 149.048, 98.864 149, 103.406 149 C 107.390 149, 108.781 148.387, 113.478 144.561 C 116.475 142.120, 121.860 138.407, 125.445 136.311 C 131.620 132.700, 131.963 132.304, 131.981 128.750 L 132 125 73.622 125 C 25.500 125, 15.046 124.760, 14.111 123.634 C 13.297 122.653, 13.051 110.473, 13.239 80.384 L 13.500 38.500 81.750 38.243 L 150 37.986 150 55.493 L 150 73 154.500 73 L 159 73 159 53.900 L 159 34.800 155.600 31.400 L 152.200 28 81.500 28 L 10.800 28 7.400 31.400 M 144.990 84.250 C 138.373 88.753, 137.535 90.881, 137.165 104.116 C 136.895 113.772, 137.137 116.561, 138.415 118.511 C 139.545 120.235, 140 123.349, 140 129.351 L 140 137.772 132.750 142.061 C 123.175 147.724, 115.306 153.560, 114.030 155.943 C 113.464 157.002, 113 161.048, 113 164.934 L 113 172 154.500 172 L 196 172 196 164.723 C 196 159.798, 195.504 156.736, 194.465 155.253 C 192.886 152.999, 175.653 141.129, 170.750 138.919 C 168.082 137.716, 168 137.440, 168 129.668 C 168 123.443, 168.390 121.226, 169.750 119.722 C 171.225 118.090, 171.500 115.771, 171.500 104.965 C 171.500 93.522, 171.275 91.840, 169.408 89.322 C 165.502 84.053, 161.321 82, 154.500 82 C 149.712 82, 147.541 82.514, 144.990 84.250 M 78 134 C 75.509 136.491, 75.446 139.189, 77.829 141.345 C 81.510 144.677, 87 142.366, 87 137.485 C 87 135.128, 83.737 132, 81.277 132 C 80.575 132, 79.100 132.900, 78 134" stroke="none" fill-rule="evenodd"></path>
</g>
<path xmlns="http://www.w3.org/2000/svg" id="SvgjsPath3117515" d="M1.23 0L2.43 0L2.43-5.63L4.68-5.63L4.68-6.75L2.43-6.75L2.43-7.71C2.43-8.97 2.94-9.53 3.79-9.53C4.30-9.53 4.69-9.38 4.98-9.13L5.40-10.05C5.05-10.38 4.41-10.65 3.60-10.65C2.10-10.65 1.23-9.72 1.23-7.84ZM6.03 0L7.23 0L7.23-4.79C7.48-5.28 7.86-5.75 8.64-5.75C9.04-5.75 9.22-5.68 9.55-5.49L9.97-6.61C9.75-6.78 9.48-6.87 8.93-6.87C8.07-6.87 7.58-6.46 7.23-5.96L7.23-6.75L6.03-6.75ZM10.68-3.38C10.68-1.35 12.12 0.15 14.28 0.15C16.44 0.15 17.88-1.35 17.88-3.38C17.88-5.40 16.44-6.90 14.28-6.90C12.12-6.90 10.68-5.40 10.68-3.38ZM11.96-3.38C11.96-4.80 12.96-5.77 14.28-5.77C15.63-5.77 16.61-4.79 16.61-3.38C16.61-1.93 15.63-0.97 14.28-0.97C12.93-0.97 11.96-1.96 11.96-3.38ZM19.60 0L20.80 0L20.80-4.88C21.24-5.37 21.95-5.75 22.71-5.75C23.97-5.75 24.61-5.08 24.61-3.67L24.61 0L25.81 0L25.81-3.90C25.81-6.01 24.77-6.87 23.01-6.87C22.13-6.87 21.27-6.43 20.80-5.92L20.80-6.75L19.60-6.75ZM27.69-2.56C27.69-0.84 28.29 0.12 29.80 0.12C30.55 0.12 31.17-0.15 31.53-0.45L31.15-1.38C30.91-1.20 30.55-1.00 30.09-1.00C29.23-1.00 28.89-1.62 28.89-2.69L28.89-5.63L31.36-5.63L31.36-6.75L28.89-6.75L28.89-8.63L27.69-8.63ZM42.41-6.75L41.19-6.75L39.96-2.56C39.85-2.22 39.77-1.88 39.69-1.53C39.59-1.86 39.49-2.19 39.38-2.50L37.83-6.75L36.80-6.75L35.27-2.49C35.13-2.11 35.07-1.84 34.98-1.54C34.89-1.86 34.83-2.16 34.73-2.49L33.41-6.75L32.12-6.75L34.35 0.06L35.34 0.06L36.98-4.29C37.09-4.58 37.17-4.84 37.26-5.16C37.34-4.88 37.41-4.60 37.52-4.33L39.20 0.06L40.24 0.06ZM43.99-5.33C44.53-5.61 45.03-5.82 45.85-5.82C47.19-5.82 47.38-4.95 47.38-3.69C46.94-4.02 46.23-4.13 45.70-4.13C44.25-4.13 43.16-3.36 43.16-1.98C43.16-0.67 43.99 0.10 45.23 0.10C46.34 0.10 46.98-0.36 47.38-0.87L47.38 0L48.52 0L48.52-4.14C48.52-5.89 47.85-6.90 45.93-6.90C45.09-6.90 44.28-6.66 43.68-6.29ZM45.64-0.97C44.87-0.97 44.43-1.40 44.43-2.04C44.43-2.82 45.15-3.15 45.87-3.15C46.45-3.15 46.97-3 47.38-2.70L47.38-1.84C47.04-1.44 46.53-0.97 45.64-0.97ZM56.67-6.75L55.30-6.75L53.74-2.48C53.63-2.11 53.52-1.77 53.43-1.44C53.30-1.78 53.17-2.11 53.02-2.46L51.05-6.75L49.60-6.75L52.84 0L52.70 0.36C52.24 1.44 51.82 1.89 51.25 1.89C50.98 1.89 50.73 1.77 50.50 1.67L50.11 2.58C50.48 2.82 50.88 3 51.39 3C52.35 3 52.98 2.42 53.97 0ZM61.32-1.83C61.32-1.21 60.75-0.90 60.12-0.90C59.45-0.90 58.56-1.30 58.17-1.75L57.49-0.90C57.81-0.42 58.89 0.15 59.98 0.15C61.34 0.15 62.59-0.46 62.59-1.89C62.59-4.26 58.95-3.58 58.95-5.01C58.95-5.46 59.35-5.85 60.03-5.85C60.73-5.85 61.32-5.55 61.73-5.19L62.30-6.10C61.89-6.50 61.08-6.90 59.97-6.90C58.63-6.90 57.67-6.18 57.67-5.00C57.67-2.52 61.32-3.19 61.32-1.83Z" fill="#343a40" fontsize="15" transform="matrix(1,0,0,1,185.77,292.325)"></path><path xmlns="http://www.w3.org/2000/svg" id="SvgjsPath3117529" d="M4.23 0L4.23-4.42L8.32-4.42L8.32-44.33L4.23-44.33L4.23-48.75L17.88-48.75L17.88-44.33L13.65-44.33L13.65-4.42L27.30-4.42L27.30-12.03L31.72-12.03L31.72 0L4.23 0ZM54.99 0L42.97 0Q39.65 0 38.29-1.53Q36.92-3.06 36.92-5.79L36.92-5.79L36.92-26.71Q36.92-29.32 38.12-30.91Q39.33-32.50 42.97-32.50L42.97-32.50L54.99-32.50Q58.56-32.50 59.80-30.91Q61.03-29.32 61.03-26.71L61.03-26.71L61.03-5.79Q61.03-3.06 59.67-1.53Q58.30 0 54.99 0L54.99 0ZM42.19-28.08L42.19-4.42L55.77-4.42L55.77-28.08L42.19-28.08ZM95.03-28.08L90.94-28.08L90.94 8.64Q90.94 11.38 89.60 12.80Q88.27 14.24 84.96 14.24L84.96 14.24L69.23 14.24L69.23 5.40L73.65 5.40L73.65 9.75L85.61 9.75L85.61-7.21L74.49-0.20Q73.06 0.65 71.34 0.65Q69.62 0.65 68.25-0.68Q66.89-2.02 66.89-3.97L66.89-3.97L66.89-26.78Q66.89-29.96 67.73-30.94L67.73-30.94Q69.16-32.50 72.41-32.50L72.41-32.50L95.03-32.50L95.03-28.08ZM85.61-12.48L85.61-28.08L71.96-28.08L71.96-3.90L85.61-12.48ZM118.30 0L106.28 0Q102.96 0 101.60-1.53Q100.23-3.06 100.23-5.79L100.23-5.79L100.23-26.71Q100.23-29.32 101.43-30.91Q102.64-32.50 106.28-32.50L106.28-32.50L118.30-32.50Q121.88-32.50 123.11-30.91Q124.35-29.32 124.35-26.71L124.35-26.71L124.35-5.79Q124.35-3.06 122.98-1.53Q121.62 0 118.30 0L118.30 0ZM105.50-28.08L105.50-4.42L119.08-4.42L119.08-28.08L105.50-28.08Z" fill="#000000" fontsize="65" transform="matrix(1,0,0,1,181.77,256.255)"></path>
</svg>